name ./resultDataOpenSim/trcMotMarkerGrf/sub10/grf-12-03.mot
datacolumns 19
datarows 25
range 0.46400000 0.56000000
endheader

                time	     ground_force_vx	     ground_force_vy	     ground_force_vz	     ground_force_px	     ground_force_py	     ground_force_pz	   l_ground_force_vx	   l_ground_force_vy	   l_ground_force_vz	   l_ground_force_px	   l_ground_force_py	   l_ground_force_pz	     ground_torque_x	     ground_torque_y	     ground_torque_z	   l_ground_torque_x	   l_ground_torque_y	   l_ground_torque_z	
          0.46400000	         22.60242416	        505.98319824	        -19.48013500	         -0.80191978	          0.00000000	         -0.00391658	          0.00000000	          0.00000000	          0.00000000	          0.00000000	          0.00000000	          0.00000000	          0.00000000	          4.23391188	          0.00000000	          0.00000000	          0.00000000	          0.00000000	
          0.46800000	         25.96695545	        509.33916854	        -19.35301130	         -0.79998034	          0.00000000	         -0.00429402	          0.00000000	          0.00000000	          0.00000000	          0.00000000	          0.00000000	          0.00000000	          0.00000000	          4.30764243	          0.00000000	          0.00000000	          0.00000000	          0.00000000	
          0.47200000	         29.20433046	        513.13230555	        -19.11342115	         -0.79799056	          0.00000000	         -0.00468237	          0.00000000	          0.00000000	          0.00000000	          0.00000000	          0.00000000	          0.00000000	          0.00000000	          4.38590190	          0.00000000	          0.00000000	          0.00000000	          0.00000000	
          0.47600000	         31.98641770	        517.50235074	        -18.92196148	         -0.79590777	          0.00000000	         -0.00508084	          0.00000000	          0.00000000	          0.00000000	          0.00000000	          0.00000000	          0.00000000	          0.00000000	          4.45653331	          0.00000000	          0.00000000	          0.00000000	          0.00000000	
          0.48000000	         34.20626596	        522.53039444	        -18.93539891	         -0.79371407	          0.00000000	         -0.00548540	          0.00000000	          0.00000000	          0.00000000	          0.00000000	          0.00000000	          0.00000000	          0.00000000	          4.50843115	          0.00000000	          0.00000000	          0.00000000	          0.00000000	
          0.48400000	         35.98263000	        528.23546497	        -19.26818095	         -0.79140228	          0.00000000	         -0.00588844	          0.00000000	          0.00000000	          0.00000000	          0.00000000	          0.00000000	          0.00000000	          0.00000000	          4.53403999	          0.00000000	          0.00000000	          0.00000000	          0.00000000	
          0.48800000	         37.59526511	        534.59551507	        -19.96395652	         -0.78898365	          0.00000000	         -0.00628117	          0.00000000	          0.00000000	          0.00000000	          0.00000000	          0.00000000	          0.00000000	          0.00000000	          4.53098779	          0.00000000	          0.00000000	          0.00000000	          0.00000000	
          0.49200000	         39.37071877	        541.57683563	        -20.98304929	         -0.78650776	          0.00000000	         -0.00665633	          0.00000000	          0.00000000	          0.00000000	          0.00000000	          0.00000000	          0.00000000	          0.00000000	          4.50253183	          0.00000000	          0.00000000	          0.00000000	          0.00000000	
          0.49600000	         41.56400321	        549.14882572	        -22.21163506	         -0.78404910	          0.00000000	         -0.00701150	          0.00000000	          0.00000000	          0.00000000	          0.00000000	          0.00000000	          0.00000000	          0.00000000	          4.45667459	          0.00000000	          0.00000000	          0.00000000	          0.00000000	
          0.50000000	         44.28023776	        557.28469595	        -23.49076813	         -0.78164752	          0.00000000	         -0.00735190	          0.00000000	          0.00000000	          0.00000000	          0.00000000	          0.00000000	          0.00000000	          0.00000000	          4.40403972	          0.00000000	          0.00000000	          0.00000000	          0.00000000	
          0.50400000	         47.44865024	        565.97634089	        -24.65218946	         -0.77929331	          0.00000000	         -0.00768809	          0.00000000	          0.00000000	          0.00000000	          0.00000000	          0.00000000	          0.00000000	          0.00000000	          4.35487562	          0.00000000	          0.00000000	          0.00000000	          0.00000000	
          0.50800000	         50.84824858	        575.26580049	        -25.55624816	         -0.77693840	          0.00000000	         -0.00802777	          0.00000000	          0.00000000	          0.00000000	          0.00000000	          0.00000000	          0.00000000	          0.00000000	          4.31579740	          0.00000000	          0.00000000	          0.00000000	          0.00000000	
          0.51200000	         54.18141351	        585.25273640	        -26.13354399	         -0.77454279	          0.00000000	         -0.00837508	          0.00000000	          0.00000000	          0.00000000	          0.00000000	          0.00000000	          0.00000000	          0.00000000	          4.28705218	          0.00000000	          0.00000000	          0.00000000	          0.00000000	
          0.51600000	         57.17732470	        596.05654528	        -26.41341476	         -0.77212339	          0.00000000	         -0.00873901	          0.00000000	          0.00000000	          0.00000000	          0.00000000	          0.00000000	          0.00000000	          0.00000000	          4.26114852	          0.00000000	          0.00000000	          0.00000000	          0.00000000	
          0.52000000	         59.69288669	        607.76754289	        -26.51940650	         -0.76973855	          0.00000000	         -0.00912501	          0.00000000	          0.00000000	          0.00000000	          0.00000000	          0.00000000	          0.00000000	          0.00000000	          4.22350442	          0.00000000	          0.00000000	          0.00000000	          0.00000000	
          0.52400000	         61.76635847	        620.43865386	        -26.63441414	         -0.76744140	          0.00000000	         -0.00952846	          0.00000000	          0.00000000	          0.00000000	          0.00000000	          0.00000000	          0.00000000	          0.00000000	          4.15527844	          0.00000000	          0.00000000	          0.00000000	          0.00000000	
          0.52800000	         63.59565895	        634.12483586	        -26.95370947	         -0.76526907	          0.00000000	         -0.00994463	          0.00000000	          0.00000000	          0.00000000	          0.00000000	          0.00000000	          0.00000000	          0.00000000	          4.03788973	          0.00000000	          0.00000000	          0.00000000	          0.00000000	
          0.53200000	         65.47512786	        648.89269786	        -27.64217965	         -0.76327304	          0.00000000	         -0.01037286	          0.00000000	          0.00000000	          0.00000000	          0.00000000	          0.00000000	          0.00000000	          0.00000000	          3.85818044	          0.00000000	          0.00000000	          0.00000000	          0.00000000	
          0.53600000	         67.73957170	        664.71573972	        -28.78327688	         -0.76152224	          0.00000000	         -0.01081389	          0.00000000	          0.00000000	          0.00000000	          0.00000000	          0.00000000	          0.00000000	          0.00000000	          3.61295487	          0.00000000	          0.00000000	          0.00000000	          0.00000000	
          0.54000000	         70.69266802	        681.34912298	        -30.30798037	         -0.76002917	          0.00000000	         -0.01127618	          0.00000000	          0.00000000	          0.00000000	          0.00000000	          0.00000000	          0.00000000	          0.00000000	          3.31174993	          0.00000000	          0.00000000	          0.00000000	          0.00000000	
          0.54400000	         74.50968560	        698.39996170	        -31.95808123	         -0.75872092	          0.00000000	         -0.01177958	          0.00000000	          0.00000000	          0.00000000	          0.00000000	          0.00000000	          0.00000000	          0.00000000	          2.97701137	          0.00000000	          0.00000000	          0.00000000	          0.00000000	
          0.54800000	         79.20720778	        715.58136503	        -33.34711409	         -0.75752373	          0.00000000	         -0.01234977	          0.00000000	          0.00000000	          0.00000000	          0.00000000	          0.00000000	          0.00000000	          0.00000000	          2.64133107	          0.00000000	          0.00000000	          0.00000000	          0.00000000	
          0.55200000	         84.71621140	        732.85507508	        -34.08782132	         -0.75644966	          0.00000000	         -0.01300017	          0.00000000	          0.00000000	          0.00000000	          0.00000000	          0.00000000	          0.00000000	          0.00000000	          2.34208946	          0.00000000	          0.00000000	          0.00000000	          0.00000000	
          0.55600000	         90.95063493	        750.28140623	        -33.88979751	         -0.75556885	          0.00000000	         -0.01372229	          0.00000000	          0.00000000	          0.00000000	          0.00000000	          0.00000000	          0.00000000	          0.00000000	          2.11462862	          0.00000000	          0.00000000	          0.00000000	          0.00000000	
          0.56000000	         97.80169263	        767.74295407	        -32.58492386	         -0.75490891	          0.00000000	         -0.01449915	          0.00000000	          0.00000000	          0.00000000	          0.00000000	          0.00000000	          0.00000000	          0.00000000	          1.98557972	          0.00000000	          0.00000000	          0.00000000	          0.00000000	
